<?xml version="1.0" standalone="no"?>
<!DOCTYPE svg PUBLIC "-//W3C//DTD SVG 20010904//EN"
 "http://www.w3.org/TR/2001/REC-SVG-20010904/DTD/svg10.dtd">
<svg version="1.0" xmlns="http://www.w3.org/2000/svg"
 width="579.000000pt" height="431.000000pt" viewBox="0 0 579.000000 431.000000"
 preserveAspectRatio="xMidYMid meet">

<g transform="translate(0.000000,431.000000) scale(0.100000,-0.100000)"
fill="#000000" stroke="none">
<path d="M4145 3809 c0 -27 1 -49 2 -49 1 0 9 12 16 28 15 30 12 58 -6 65 -8
3 -12 -11 -12 -44z"/>
<path d="M3860 3723 c-38 -12 -256 -107 -265 -115 -19 -17 13 -7 103 31 143
61 187 74 211 61 43 -22 27 -57 -97 -211 -24 -30 -56 -67 -71 -84 -15 -16 -56
-63 -91 -103 -34 -40 -65 -71 -68 -68 -3 4 3 16 14 29 11 12 33 42 49 67 16
25 49 67 75 95 46 50 89 106 104 135 12 24 -163 -170 -218 -240 -116 -150
-371 -468 -434 -543 -79 -94 -156 -162 -244 -214 -30 -18 -73 -51 -97 -73
l-43 -40 34 0 c47 1 136 40 210 92 112 81 194 175 543 623 60 77 127 160 150
185 65 71 190 232 208 267 21 41 21 56 0 81 -20 22 -50 33 -73 25z"/>
<path d="M3073 3601 c-100 -36 -185 -70 -189 -74 -16 -16 36 -5 111 24 162 61
236 89 241 89 8 0 -16 -40 -84 -143 -35 -54 -62 -100 -59 -103 11 -11 49 18
43 33 -4 9 7 32 27 57 28 35 97 134 121 174 13 22 -24 12 -211 -57z"/>
<path d="M3765 3629 c-127 -51 -224 -98 -205 -98 8 0 78 26 154 59 77 33 144
60 149 60 5 0 -1 -17 -12 -37 l-22 -38 30 35 c32 37 39 60 19 60 -7 0 -58 -19
-113 -41z"/>
<path d="M3531 3584 c-19 -8 -32 -17 -28 -20 3 -3 22 4 44 15 44 23 34 27 -16
5z"/>
<path d="M3090 3555 c-25 -8 -72 -21 -104 -30 -33 -8 -65 -20 -70 -24 -21 -16
-165 -63 -183 -58 -17 4 25 27 106 58 13 5 22 11 20 14 -10 9 -358 -117 -417
-151 -70 -41 -143 -120 -185 -202 -55 -105 -45 -116 33 -36 197 203 153 177
495 299 66 23 163 59 216 79 53 20 102 36 108 36 11 0 -64 -115 -131 -201 -15
-20 -28 -40 -28 -43 0 -20 63 2 400 141 80 33 154 63 164 67 10 3 16 9 13 12
-2 3 -38 -6 -78 -19 -41 -13 -90 -27 -109 -31 l-35 -6 34 21 c19 11 59 32 89
45 30 13 53 27 50 30 -3 3 -25 -4 -49 -14 -24 -11 -93 -39 -154 -62 -114 -44
-154 -67 -100 -57 17 3 39 9 49 13 13 5 17 4 13 -3 -9 -14 -162 -73 -188 -73
-10 0 -19 4 -19 8 0 5 27 48 60 98 33 49 60 92 60 97 0 8 -2 8 -60 -8z m-445
-145 c-27 -12 -35 -12 -35 0 0 6 12 10 28 9 24 0 25 -1 7 -9z m-80 -30 c-3 -5
-18 -10 -33 -10 -21 0 -24 2 -12 10 20 13 53 13 45 0z"/>
<path d="M3450 3370 c-24 -14 -214 -93 -460 -192 -196 -78 -220 -87 -220 -82
0 7 29 52 77 118 46 62 56 94 26 81 -10 -5 -65 -25 -123 -45 -58 -21 -132 -47
-165 -60 -33 -12 -96 -34 -141 -50 -113 -39 -129 -49 -179 -110 -82 -100 -114
-200 -97 -298 23 -127 89 -218 198 -272 63 -31 75 -33 168 -34 93 0 106 2 166
31 116 57 169 102 260 223 19 25 50 63 69 86 20 23 47 56 61 75 14 18 52 67
86 109 125 155 315 402 321 416 6 16 -23 18 -47 4z m-1053 -413 c-75 -99 -51
-233 55 -309 28 -20 45 -23 118 -23 72 0 90 3 117 23 43 30 50 13 10 -26 -132
-126 -342 -100 -413 51 -41 89 -30 184 32 255 31 37 103 86 112 77 2 -2 -12
-23 -31 -48z"/>
<path d="M813 2173 c-3 -10 -8 -21 -10 -25 -2 -5 32 -8 76 -8 79 0 80 0 72 23
-7 19 -16 22 -70 25 -52 2 -62 0 -68 -15z"/>
<path d="M2583 1904 c-8 -20 21 -49 41 -41 20 8 20 21 0 41 -20 20 -33 20 -41
0z"/>
<path d="M2985 1881 c-49 -20 -98 -88 -113 -158 -8 -37 -8 -39 14 -38 31 0 46
17 64 73 11 33 25 53 50 70 45 30 59 62 27 61 -12 0 -31 -4 -42 -8z"/>
<path d="M2652 1798 c-24 -31 -42 -150 -24 -162 20 -12 34 17 43 83 5 40 11
76 14 82 9 14 -21 11 -33 -3z"/>
<path d="M4877 1459 c7 -7 15 -10 18 -7 3 3 -2 9 -12 12 -14 6 -15 5 -6 -5z"/>
<path d="M522 1444 c-7 -8 -8 -14 -3 -14 10 0 25 19 20 25 -2 1 -10 -3 -17
-11z"/>
<path d="M2060 1429 c0 -4 6 -9 13 -12 8 -3 14 0 14 7 0 7 -6 13 -14 13 -7 0
-13 -4 -13 -8z"/>
<path d="M5243 1425 c0 -21 52 -41 63 -24 3 5 0 8 -7 7 -7 -2 -13 3 -14 11 0
19 -42 25 -42 6z"/>
<path d="M521 1394 c0 -11 3 -14 6 -6 3 7 2 16 -1 19 -3 4 -6 -2 -5 -13z"/>
<path d="M2092 1395 c-11 -12 -10 -15 3 -15 8 0 15 7 15 15 0 18 -2 18 -18 0z"/>
<path d="M5305 1371 c-3 -6 3 -15 14 -20 26 -14 28 -14 36 7 5 13 3 14 -6 5
-13 -13 -42 -6 -33 8 3 5 3 9 0 9 -3 0 -7 -4 -11 -9z"/>
<path d="M477 1343 c-2 -5 -4 -24 -6 -43 -1 -19 -19 -76 -41 -127 -46 -108
-52 -171 -20 -233 23 -45 60 -73 115 -89 52 -14 288 -14 340 0 52 14 103 53
111 84 9 35 41 42 70 14 13 -12 26 -30 29 -39 3 -9 24 -27 48 -41 42 -24 44
-24 366 -27 l325 -3 31 -28 c17 -15 52 -33 77 -40 39 -11 54 -11 101 3 34 10
64 26 79 44 l23 27 185 0 c162 0 189 2 220 19 18 10 39 24 45 30 20 20 52 81
59 110 l7 29 37 -35 c89 -84 179 -129 297 -148 90 -14 199 1 278 39 l60 29 36
-28 c49 -40 112 -51 266 -49 108 1 140 5 176 21 43 19 45 19 74 1 27 -16 61
-18 315 -21 346 -4 375 -1 439 42 45 30 50 32 75 19 105 -55 284 -71 390 -34
33 12 78 32 100 45 54 31 149 132 140 148 -4 6 -3 8 3 5 12 -8 36 33 62 108
26 72 26 79 1 134 -16 35 -23 41 -34 32 -10 -9 -13 -27 -9 -70 7 -73 -8 -120
-60 -191 -47 -64 -117 -122 -184 -152 -81 -36 -300 -35 -348 2 -5 4 -21 11
-35 15 -14 4 -36 16 -49 27 -24 18 -24 18 -42 -11 -40 -66 -40 -66 -389 -66
-173 0 -327 3 -343 8 -15 4 -36 16 -47 27 -20 20 -20 20 -40 0 -30 -30 -62
-35 -225 -35 -133 0 -154 2 -185 21 -19 11 -40 30 -46 42 -18 36 -21 36 -73 3
-124 -80 -301 -87 -441 -19 -94 46 -224 182 -243 254 -5 20 -12 -83 -8 -124 1
-13 -5 -47 -13 -75 -12 -40 -24 -58 -53 -77 -35 -24 -42 -25 -198 -25 -134 0
-165 3 -187 17 -27 18 -38 15 -38 -11 0 -18 -33 -52 -67 -69 -28 -15 -108 -15
-136 0 -12 6 -31 22 -42 34 l-20 23 -324 1 c-375 1 -381 2 -421 85 l-22 46
-51 -3 c-48 -3 -52 -5 -71 -42 -39 -74 -58 -81 -228 -84 -122 -3 -158 -1 -194
13 -98 37 -116 134 -48 264 8 14 14 32 14 39 0 6 5 12 12 12 6 0 9 2 6 6 -3 3
-2 20 2 39 5 20 4 33 -1 29 -5 -3 -9 0 -9 5 0 6 5 11 10 11 6 0 10 9 10 20 0
20 -34 29 -43 13z m18 -13 c3 -5 1 -10 -4 -10 -6 0 -11 5 -11 10 0 6 2 10 4
10 3 0 8 -4 11 -10z m0 -50 c3 -5 1 -10 -4 -10 -6 0 -11 5 -11 10 0 6 2 10 4
10 3 0 8 -4 11 -10z"/>
</g>
</svg>
